<mxfile host="app.diagrams.net" modified="2023-09-11T19:59:01.212Z" agent="Mozilla/5.0 (Windows NT 10.0; Win64; x64) AppleWebKit/537.36 (KHTML, like Gecko) Chrome/115.0.0.0 Safari/537.36 OPR/101.0.0.0" etag="_XPjMqJh9v1qopuCJYIM" version="21.6.7" type="device">
  <diagram name="Seite-1" id="p4FFzEyfwFRbisr4tuaj">
    <mxGraphModel dx="557" dy="319" grid="1" gridSize="10" guides="1" tooltips="1" connect="1" arrows="1" fold="1" page="1" pageScale="1" pageWidth="827" pageHeight="1169" math="0" shadow="0">
      <root>
        <mxCell id="0" />
        <mxCell id="1" parent="0" />
        <mxCell id="hm6N4Bcu7I8urfzpn98E-11" value="" style="group" vertex="1" connectable="0" parent="1">
          <mxGeometry x="330" y="180" width="80" height="120" as="geometry" />
        </mxCell>
        <mxCell id="hm6N4Bcu7I8urfzpn98E-9" value="" style="rounded=0;whiteSpace=wrap;html=1;" vertex="1" parent="hm6N4Bcu7I8urfzpn98E-11">
          <mxGeometry width="80" height="120" as="geometry" />
        </mxCell>
        <mxCell id="hm6N4Bcu7I8urfzpn98E-10" value="Alpha&lt;sub&gt;s&lt;/sub&gt;" style="text;html=1;strokeColor=none;fillColor=none;align=center;verticalAlign=middle;whiteSpace=wrap;rounded=0;rotation=-90;" vertex="1" parent="hm6N4Bcu7I8urfzpn98E-11">
          <mxGeometry x="-22.857142857142854" y="55" width="68.57142857142857" height="10" as="geometry" />
        </mxCell>
        <mxCell id="hm6N4Bcu7I8urfzpn98E-5" style="edgeStyle=orthogonalEdgeStyle;rounded=0;orthogonalLoop=1;jettySize=auto;html=1;exitX=0.5;exitY=1;exitDx=0;exitDy=0;entryX=0.5;entryY=0;entryDx=0;entryDy=0;" edge="1" parent="1" source="hm6N4Bcu7I8urfzpn98E-1" target="hm6N4Bcu7I8urfzpn98E-4">
          <mxGeometry relative="1" as="geometry" />
        </mxCell>
        <mxCell id="hm6N4Bcu7I8urfzpn98E-1" value="Pi&lt;sub&gt;s&lt;/sub&gt;" style="rounded=0;whiteSpace=wrap;html=1;" vertex="1" parent="1">
          <mxGeometry x="360" y="190" width="40" height="20" as="geometry" />
        </mxCell>
        <mxCell id="hm6N4Bcu7I8urfzpn98E-3" style="edgeStyle=orthogonalEdgeStyle;rounded=0;orthogonalLoop=1;jettySize=auto;html=1;exitX=0.5;exitY=1;exitDx=0;exitDy=0;entryX=0.5;entryY=0;entryDx=0;entryDy=0;" edge="1" parent="1" source="hm6N4Bcu7I8urfzpn98E-2" target="hm6N4Bcu7I8urfzpn98E-1">
          <mxGeometry relative="1" as="geometry" />
        </mxCell>
        <mxCell id="hm6N4Bcu7I8urfzpn98E-2" value="Eingabe" style="text;html=1;strokeColor=none;fillColor=none;align=center;verticalAlign=middle;whiteSpace=wrap;rounded=0;" vertex="1" parent="1">
          <mxGeometry x="350" y="140" width="60" height="20" as="geometry" />
        </mxCell>
        <mxCell id="hm6N4Bcu7I8urfzpn98E-4" value="Chi&lt;sub&gt;s&lt;/sub&gt;" style="rounded=0;whiteSpace=wrap;html=1;" vertex="1" parent="1">
          <mxGeometry x="360" y="230" width="40" height="20" as="geometry" />
        </mxCell>
        <mxCell id="hm6N4Bcu7I8urfzpn98E-6" value="" style="endArrow=classic;html=1;rounded=0;exitX=0.5;exitY=1;exitDx=0;exitDy=0;entryX=0.5;entryY=0;entryDx=0;entryDy=0;" edge="1" parent="1" source="hm6N4Bcu7I8urfzpn98E-4" target="hm6N4Bcu7I8urfzpn98E-7">
          <mxGeometry width="50" height="50" relative="1" as="geometry">
            <mxPoint x="360" y="320" as="sourcePoint" />
            <mxPoint x="385" y="270" as="targetPoint" />
          </mxGeometry>
        </mxCell>
        <mxCell id="hm6N4Bcu7I8urfzpn98E-20" style="edgeStyle=orthogonalEdgeStyle;rounded=0;orthogonalLoop=1;jettySize=auto;html=1;exitX=0.5;exitY=1;exitDx=0;exitDy=0;entryX=0.75;entryY=1;entryDx=0;entryDy=0;" edge="1" parent="1" source="hm6N4Bcu7I8urfzpn98E-7" target="hm6N4Bcu7I8urfzpn98E-14">
          <mxGeometry relative="1" as="geometry" />
        </mxCell>
        <mxCell id="hm6N4Bcu7I8urfzpn98E-7" value="Iota&lt;sub&gt;r,s&lt;/sub&gt;" style="rounded=0;whiteSpace=wrap;html=1;" vertex="1" parent="1">
          <mxGeometry x="360" y="270" width="40" height="20" as="geometry" />
        </mxCell>
        <mxCell id="hm6N4Bcu7I8urfzpn98E-28" style="edgeStyle=orthogonalEdgeStyle;rounded=0;orthogonalLoop=1;jettySize=auto;html=1;exitX=0.5;exitY=1;exitDx=0;exitDy=0;entryX=0.25;entryY=1;entryDx=0;entryDy=0;" edge="1" parent="1" source="hm6N4Bcu7I8urfzpn98E-13" target="hm6N4Bcu7I8urfzpn98E-25">
          <mxGeometry relative="1" as="geometry" />
        </mxCell>
        <mxCell id="hm6N4Bcu7I8urfzpn98E-13" value="Theta&lt;sub&gt;s&lt;/sub&gt;" style="rounded=0;whiteSpace=wrap;html=1;" vertex="1" parent="1">
          <mxGeometry x="490" y="245" width="50" height="20" as="geometry" />
        </mxCell>
        <mxCell id="hm6N4Bcu7I8urfzpn98E-19" value="" style="endArrow=classic;html=1;rounded=0;startArrow=oval;startFill=1;entryX=0.234;entryY=1;entryDx=0;entryDy=0;entryPerimeter=0;" edge="1" parent="1" target="hm6N4Bcu7I8urfzpn98E-14">
          <mxGeometry width="50" height="50" relative="1" as="geometry">
            <mxPoint x="380" y="170" as="sourcePoint" />
            <mxPoint x="540" y="190" as="targetPoint" />
            <Array as="points">
              <mxPoint x="540" y="170" />
            </Array>
          </mxGeometry>
        </mxCell>
        <mxCell id="hm6N4Bcu7I8urfzpn98E-22" style="edgeStyle=orthogonalEdgeStyle;rounded=0;orthogonalLoop=1;jettySize=auto;html=1;exitX=0.5;exitY=0;exitDx=0;exitDy=0;entryX=0.5;entryY=0;entryDx=0;entryDy=0;" edge="1" parent="1" source="hm6N4Bcu7I8urfzpn98E-14" target="hm6N4Bcu7I8urfzpn98E-13">
          <mxGeometry relative="1" as="geometry" />
        </mxCell>
        <mxCell id="hm6N4Bcu7I8urfzpn98E-23" value="" style="group" vertex="1" connectable="0" parent="1">
          <mxGeometry x="468" y="200" width="94" height="20" as="geometry" />
        </mxCell>
        <mxCell id="hm6N4Bcu7I8urfzpn98E-14" value="" style="shape=trapezoid;perimeter=trapezoidPerimeter;whiteSpace=wrap;html=1;fixedSize=1;rotation=-180;size=10;" vertex="1" parent="hm6N4Bcu7I8urfzpn98E-23">
          <mxGeometry width="94" height="20" as="geometry" />
        </mxCell>
        <mxCell id="hm6N4Bcu7I8urfzpn98E-21" value="MUX" style="text;html=1;strokeColor=none;fillColor=none;align=center;verticalAlign=middle;whiteSpace=wrap;rounded=0;" vertex="1" parent="hm6N4Bcu7I8urfzpn98E-23">
          <mxGeometry x="27" y="5" width="40" height="10" as="geometry" />
        </mxCell>
        <mxCell id="hm6N4Bcu7I8urfzpn98E-25" value="" style="shape=trapezoid;perimeter=trapezoidPerimeter;whiteSpace=wrap;html=1;fixedSize=1;rotation=-180;size=10;" vertex="1" parent="1">
          <mxGeometry x="440" y="305" width="100" height="20" as="geometry" />
        </mxCell>
        <mxCell id="hm6N4Bcu7I8urfzpn98E-29" value="" style="endArrow=classic;html=1;rounded=0;entryX=0.75;entryY=1;entryDx=0;entryDy=0;startArrow=oval;startFill=1;" edge="1" parent="1" target="hm6N4Bcu7I8urfzpn98E-25">
          <mxGeometry width="50" height="50" relative="1" as="geometry">
            <mxPoint x="515" y="225" as="sourcePoint" />
            <mxPoint x="470" y="305" as="targetPoint" />
            <Array as="points">
              <mxPoint x="465" y="225" />
            </Array>
          </mxGeometry>
        </mxCell>
        <mxCell id="hm6N4Bcu7I8urfzpn98E-30" value="MUX" style="text;html=1;strokeColor=none;fillColor=none;align=center;verticalAlign=middle;whiteSpace=wrap;rounded=0;" vertex="1" parent="1">
          <mxGeometry x="470" y="310" width="40" height="10" as="geometry" />
        </mxCell>
        <mxCell id="hm6N4Bcu7I8urfzpn98E-31" value="" style="endArrow=classic;html=1;rounded=0;exitX=0.5;exitY=0;exitDx=0;exitDy=0;" edge="1" parent="1" source="hm6N4Bcu7I8urfzpn98E-25">
          <mxGeometry width="50" height="50" relative="1" as="geometry">
            <mxPoint x="490" y="390" as="sourcePoint" />
            <mxPoint x="490" y="350" as="targetPoint" />
          </mxGeometry>
        </mxCell>
        <mxCell id="hm6N4Bcu7I8urfzpn98E-32" value="Ausgabe" style="text;html=1;strokeColor=none;fillColor=none;align=center;verticalAlign=middle;whiteSpace=wrap;rounded=0;" vertex="1" parent="1">
          <mxGeometry x="460" y="350" width="60" height="20" as="geometry" />
        </mxCell>
      </root>
    </mxGraphModel>
  </diagram>
</mxfile>
